HIERARCHY
ROOT Hips
{
	OFFSET 0.000000 0.000000 0.000000
	CHANNELS 6 Xposition Yposition Zposition Xrotation Yrotation Zrotation
	JOINT Thigh.L
	{
		OFFSET 0.054028 0.030990 -0.091957
		CHANNELS 3 Xrotation Yrotation Zrotation
		JOINT Shin.L
		{
			OFFSET 0.053656 0.015747 -0.410563
			CHANNELS 3 Xrotation Yrotation Zrotation
			JOINT Foot.L
			{
				OFFSET -0.041430 0.032991 -0.430492
				CHANNELS 3 Xrotation Yrotation Zrotation
				JOINT Toe.L
				{
					OFFSET 0.044727 -0.119338 -0.063674
					CHANNELS 3 Xrotation Yrotation Zrotation
					End Site
					{
						OFFSET 0.000000 0.050000 0.000000
					}
				}
			}
		}
	}
	JOINT Thigh.R
	{
		OFFSET -0.059329 0.028192 -0.102377
		CHANNELS 3 Xrotation Yrotation Zrotation
		JOINT Shin.R
		{
			OFFSET -0.043014 0.021242 -0.394236
			CHANNELS 3 Xrotation Yrotation Zrotation
			JOINT Foot.R
			{
				OFFSET 0.015534 0.021518 -0.439399
				CHANNELS 3 Xrotation Yrotation Zrotation
				JOINT Toe.R
				{
					OFFSET -0.037068 -0.120094 -0.063645
					CHANNELS 3 Xrotation Yrotation Zrotation
					End Site
					{
						OFFSET 0.000000 0.050000 0.000000
					}
				}
			}
		}
	}
	JOINT Spine
	{
		OFFSET -0.002047 0.019053 0.109038
		CHANNELS 3 Xrotation Yrotation Zrotation
		JOINT Spine.2
		{
			OFFSET 0.006686 0.002395 0.134710
			CHANNELS 3 Xrotation Yrotation Zrotation
			JOINT Chest
			{
				OFFSET -0.010335 -0.022956 0.049617
				CHANNELS 3 Xrotation Yrotation Zrotation
				JOINT Neck
				{
					OFFSET -0.009488 0.028460 0.163947
					CHANNELS 3 Xrotation Yrotation Zrotation
					JOINT Head
					{
						OFFSET 0.022357 -0.022185 0.167441
						CHANNELS 3 Xrotation Yrotation Zrotation
						End Site
						{
							OFFSET 0.000000 0.050000 0.000000
						}
					}
				}
				JOINT Clavicle.L
				{
					OFFSET 0.043549 0.007842 0.083841
					CHANNELS 3 Xrotation Yrotation Zrotation
					JOINT UpperArm.L
					{
						OFFSET 0.107604 0.014381 0.061442
						CHANNELS 3 Xrotation Yrotation Zrotation
						JOINT ForeArm.L
						{
							OFFSET 0.264153 0.035267 -0.075543
							CHANNELS 3 Xrotation Yrotation Zrotation
							JOINT Hand.L
							{
								OFFSET 0.262902 0.006037 0.021154
								CHANNELS 3 Xrotation Yrotation Zrotation
								JOINT Thumb1.L
								{
									OFFSET 0.154582 0.002746 0.009622
									CHANNELS 3 Xrotation Yrotation Zrotation
									JOINT Thumb2.L
									{
										OFFSET 0.029896 0.000686 0.002406
										CHANNELS 3 Xrotation Yrotation Zrotation
										End Site
										{
											OFFSET 0.024913 0.000572 0.002005
										}
									}
								}
								JOINT Index1.L
								{
									OFFSET 0.137582 0.002746 0.009622
									CHANNELS 3 Xrotation Yrotation Zrotation
									JOINT Index2.L
									{
										OFFSET 0.029896 0.000686 0.002406
										CHANNELS 3 Xrotation Yrotation Zrotation
										JOINT Index3.L
										{
											OFFSET 0.021923 0.000503 0.001764
											CHANNELS 3 Xrotation Yrotation Zrotation
											End Site
											{
												OFFSET 0.017937 0.000412 0.001443
											}
										}
									}
								}
								JOINT Middle1.L
								{
									OFFSET 0.119582 0.002746 0.009622
									CHANNELS 3 Xrotation Yrotation Zrotation
									JOINT Middle2.L
									{
										OFFSET 0.030892 0.000709 0.002486
										CHANNELS 3 Xrotation Yrotation Zrotation
										JOINT Middle3.L
										{
											OFFSET 0.021923 0.000503 0.001764
											CHANNELS 3 Xrotation Yrotation Zrotation
											End Site
											{
												OFFSET 0.017937 0.000412 0.001443
											}
										}
									}
								}
								JOINT Ring1.L
								{
									OFFSET 0.101582 0.002746 0.009622
									CHANNELS 3 Xrotation Yrotation Zrotation
									JOINT Ring2.L
									{
										OFFSET 0.028899 0.000664 0.002325
										CHANNELS 3 Xrotation Yrotation Zrotation
										JOINT Ring3.L
										{
											OFFSET 0.019930 0.000458 0.001604
											CHANNELS 3 Xrotation Yrotation Zrotation
											End Site
											{
												OFFSET 0.016941 0.000389 0.001363
											}
										}
									}
								}
								JOINT Pinky1.L
								{
									OFFSET 0.085582 0.002746 0.009622
									CHANNELS 3 Xrotation Yrotation Zrotation
									JOINT Pinky2.L
									{
										OFFSET 0.023916 0.000549 0.001924
										CHANNELS 3 Xrotation Yrotation Zrotation
										JOINT Pinky3.L
										{
											OFFSET 0.016941 0.000389 0.001363
											CHANNELS 3 Xrotation Yrotation Zrotation
											End Site
											{
												OFFSET 0.013951 0.000320 0.001123
											}
										}
									}
								}
							}
						}
					}
				}
				JOINT Clavicle.R
				{
					OFFSET -0.041656 0.013905 0.083294
					CHANNELS 3 Xrotation Yrotation Zrotation
					JOINT UpperArm.R
					{
						OFFSET -0.092948 0.009420 0.057122
						CHANNELS 3 Xrotation Yrotation Zrotation
						JOINT ForeArm.R
						{
							OFFSET -0.280262 0.022592 -0.042808
							CHANNELS 3 Xrotation Yrotation Zrotation
							JOINT Hand.R
							{
								OFFSET -0.259636 0.018584 -0.003553
								CHANNELS 3 Xrotation Yrotation Zrotation
								JOINT Thumb1.R
								{
									OFFSET -0.154683 0.008567 -0.001638
									CHANNELS 3 Xrotation Yrotation Zrotation
									JOINT Thumb2.R
									{
										OFFSET -0.029921 0.002142 -0.000409
										CHANNELS 3 Xrotation Yrotation Zrotation
										End Site
										{
											OFFSET -0.024934 0.001785 -0.000341
										}
									}
								}
								JOINT Index1.R
								{
									OFFSET -0.137683 0.008567 -0.001638
									CHANNELS 3 Xrotation Yrotation Zrotation
									JOINT Index2.R
									{
										OFFSET -0.029921 0.002142 -0.000409
										CHANNELS 3 Xrotation Yrotation Zrotation
										JOINT Index3.R
										{
											OFFSET -0.021942 0.001571 -0.000300
											CHANNELS 3 Xrotation Yrotation Zrotation
											End Site
											{
												OFFSET -0.017952 0.001285 -0.000246
											}
										}
									}
								}
								JOINT Middle1.R
								{
									OFFSET -0.119683 0.008567 -0.001638
									CHANNELS 3 Xrotation Yrotation Zrotation
									JOINT Middle2.R
									{
										OFFSET -0.030918 0.002213 -0.000423
										CHANNELS 3 Xrotation Yrotation Zrotation
										JOINT Middle3.R
										{
											OFFSET -0.021942 0.001571 -0.000300
											CHANNELS 3 Xrotation Yrotation Zrotation
											End Site
											{
												OFFSET -0.017952 0.001285 -0.000246
											}
										}
									}
								}
								JOINT Ring1.R
								{
									OFFSET -0.101683 0.008567 -0.001638
									CHANNELS 3 Xrotation Yrotation Zrotation
									JOINT Ring2.R
									{
										OFFSET -0.028923 0.002070 -0.000396
										CHANNELS 3 Xrotation Yrotation Zrotation
										JOINT Ring3.R
										{
											OFFSET -0.019947 0.001428 -0.000273
											CHANNELS 3 Xrotation Yrotation Zrotation
											End Site
											{
												OFFSET -0.016955 0.001214 -0.000232
											}
										}
									}
								}
								JOINT Pinky1.R
								{
									OFFSET -0.085683 0.008567 -0.001638
									CHANNELS 3 Xrotation Yrotation Zrotation
									JOINT Pinky2.R
									{
										OFFSET -0.023937 0.001713 -0.000328
										CHANNELS 3 Xrotation Yrotation Zrotation
										JOINT Pinky3.R
										{
											OFFSET -0.016955 0.001214 -0.000232
											CHANNELS 3 Xrotation Yrotation Zrotation
											End Site
											{
												OFFSET -0.013963 0.000999 -0.000191
											}
										}
									}
								}
							}
						}
					}
				}
			}
		}
	}
}
MOTION
Frames: 7
Frame Time: 0.04166667
-0.003716 -0.054774 1.309545 -8.285798 1.099290 2.661151 8.083477 0.017561 2.503716 1.836433 -0.449314 -1.708759 -3.152289 1.930842 10.831741 2.082205 -3.458999 0.656363 4.762942 -0.981162 -2.083185 6.045497 0.316461 -1.144294 0.717793 -4.337705 -7.473979 0.615621 0.781095 -0.018963 3.268797 0.357468 2.249324 11.680446 -4.004345 -2.646085 -6.008957 1.857693 0.807926 7.439710 2.465596 1.576927 5.816975 -3.594854 4.973648 7.720495 17.279263 -0.065760 19.032398 53.508962 -22.555662 8.506838 -1.368578 -22.231237 -4.204885 4.029370 -7.787373 0.000000 0.000000 0.000000 0.000000 0.000000 0.000000 0.000000 0.000000 0.000000 0.000000 0.000000 0.000000 0.000000 0.000000 0.000000 0.000000 0.000000 0.000000 0.000000 0.000000 0.000000 0.000000 0.000000 0.000000 0.000000 0.000000 0.000000 0.000000 0.000000 0.000000 0.000000 0.000000 0.000000 0.000000 0.000000 0.000000 0.000000 0.000000 0.000000 0.000000 0.000000 0.000000 5.443290 -8.618746 4.945136 31.198479 -58.488383 27.029845 5.582234 1.398383 27.963446 -9.639395 -2.903518 4.307974 0.000000 0.000000 0.000000 0.000000 0.000000 0.000000 0.000000 0.000000 0.000000 0.000000 0.000000 0.000000 0.000000 0.000000 0.000000 0.000000 0.000000 0.000000 0.000000 0.000000 0.000000 0.000000 0.000000 0.000000 0.000000 0.000000 0.000000 0.000000 0.000000 0.000000 0.000000 0.000000 0.000000 0.000000 0.000000 0.000000 0.000000 0.000000 0.000000 0.000000 0.000000 0.000000
-0.003617 -0.054442 1.309634 -8.323662 1.104082 2.558927 8.383448 0.058569 2.485149 1.431723 -0.504032 -1.776399 -2.968752 1.839456 10.862603 2.130499 -3.398966 0.703584 4.835996 -0.972063 -2.131984 6.041946 0.305887 -1.202540 0.700775 -4.323437 -7.331209 0.628629 0.675890 -0.075123 3.239462 0.404911 2.283699 11.701943 -3.994475 -2.583030 -6.011413 1.831583 0.812543 7.453780 2.421528 1.571875 5.734527 -3.605637 4.792539 7.705108 17.346142 -0.129535 18.923654 53.562078 -22.475120 8.377907 -1.417446 -21.922905 -3.980190 4.154930 -7.609729 0.000000 0.000000 0.000000 0.000000 0.000000 0.000000 0.000000 0.000000 0.000000 0.000000 0.000000 0.000000 0.000000 0.000000 0.000000 0.000000 0.000000 0.000000 0.000000 0.000000 0.000000 0.000000 0.000000 0.000000 0.000000 0.000000 0.000000 0.000000 0.000000 0.000000 0.000000 0.000000 0.000000 0.000000 0.000000 0.000000 0.000000 0.000000 0.000000 0.000000 0.000000 0.000000 5.467999 -8.576964 5.112908 31.249479 -58.620138 27.030353 5.536966 1.461023 27.804606 -9.527462 -3.018047 4.190207 0.000000 0.000000 0.000000 0.000000 0.000000 0.000000 0.000000 0.000000 0.000000 0.000000 0.000000 0.000000 0.000000 0.000000 0.000000 0.000000 0.000000 0.000000 0.000000 0.000000 0.000000 0.000000 0.000000 0.000000 0.000000 0.000000 0.000000 0.000000 0.000000 0.000000 0.000000 0.000000 0.000000 0.000000 0.000000 0.000000 0.000000 0.000000 0.000000 0.000000 0.000000 0.000000
-0.002500 -0.054051 1.309709 -8.361394 1.035565 2.572781 8.649294 0.051523 2.591770 1.086632 -0.448600 -1.634516 -2.818204 1.896046 10.655427 2.151797 -3.329233 0.725980 4.969454 -0.936861 -2.227015 5.950531 0.294027 -1.324118 0.688788 -4.299383 -7.197910 0.627220 0.610338 -0.096658 3.306645 0.463427 2.298957 11.710992 -3.974057 -2.510555 -5.965961 1.771619 0.790231 7.406833 2.417176 1.537503 5.623658 -3.609809 4.634656 7.743732 17.365380 -0.263487 18.685600 53.584832 -22.289775 8.278881 -1.406197 -21.796233 -3.820254 4.243632 -7.356190 0.000000 0.000000 0.000000 0.000000 0.000000 0.000000 0.000000 0.000000 0.000000 0.000000 0.000000 0.000000 0.000000 0.000000 0.000000 0.000000 0.000000 0.000000 0.000000 0.000000 0.000000 0.000000 0.000000 0.000000 0.000000 0.000000 0.000000 0.000000 0.000000 0.000000 0.000000 0.000000 0.000000 0.000000 0.000000 0.000000 0.000000 0.000000 0.000000 0.000000 0.000000 0.000000 5.547130 -8.536505 5.302936 31.185900 -58.789115 26.973310 5.447496 1.509746 27.707993 -9.260256 -3.113659 3.971651 0.000000 0.000000 0.000000 0.000000 0.000000 0.000000 0.000000 0.000000 0.000000 0.000000 0.000000 0.000000 0.000000 0.000000 0.000000 0.000000 0.000000 0.000000 0.000000 0.000000 0.000000 0.000000 0.000000 0.000000 0.000000 0.000000 0.000000 0.000000 0.000000 0.000000 0.000000 0.000000 0.000000 0.000000 0.000000 0.000000 0.000000 0.000000 0.000000 0.000000 0.000000 0.000000
-0.003048 -0.053523 1.309708 -8.320963 1.073267 2.570644 8.633473 0.045104 2.554402 1.076539 -0.474001 -1.562271 -2.813177 1.906738 10.624128 2.153602 -3.316427 0.711942 4.990899 -0.961789 -2.237070 5.850640 0.317656 -1.436768 0.772999 -4.374830 -7.090523 0.629832 0.657747 -0.082838 3.281811 0.455603 2.305261 11.735189 -3.942364 -2.504195 -5.998111 1.705622 0.784430 7.447549 2.533311 1.449058 5.619242 -3.687868 4.621671 7.861183 17.357851 -0.397218 18.561350 53.705211 -22.149945 8.186080 -1.423329 -21.827554 -3.710887 4.341313 -7.304438 0.000000 0.000000 0.000000 0.000000 0.000000 0.000000 0.000000 0.000000 0.000000 0.000000 0.000000 0.000000 0.000000 0.000000 0.000000 0.000000 0.000000 0.000000 0.000000 0.000000 0.000000 0.000000 0.000000 0.000000 0.000000 0.000000 0.000000 0.000000 0.000000 0.000000 0.000000 0.000000 0.000000 0.000000 0.000000 0.000000 0.000000 0.000000 0.000000 0.000000 0.000000 0.000000 5.702803 -8.391221 5.440612 31.124046 -58.918606 26.903380 5.513169 1.631053 27.788006 -9.093835 -3.259531 3.896257 0.000000 0.000000 0.000000 0.000000 0.000000 0.000000 0.000000 0.000000 0.000000 0.000000 0.000000 0.000000 0.000000 0.000000 0.000000 0.000000 0.000000 0.000000 0.000000 0.000000 0.000000 0.000000 0.000000 0.000000 0.000000 0.000000 0.000000 0.000000 0.000000 0.000000 0.000000 0.000000 0.000000 0.000000 0.000000 0.000000 0.000000 0.000000 0.000000 0.000000 0.000000 0.000000
-0.003447 -0.052833 1.309692 -8.254813 1.129611 2.584241 8.571970 -0.016971 2.548184 1.093887 -0.476845 -1.471498 -2.798936 1.944017 10.542282 2.148016 -3.312240 0.685127 4.975555 -1.015829 -2.263272 5.763718 0.325942 -1.521536 0.864422 -4.446248 -7.007011 0.642568 0.722133 -0.051535 3.285101 0.417574 2.299852 11.713058 -3.914350 -2.508164 -6.031213 1.613076 0.756427 7.484707 2.679783 1.342518 5.626702 -3.759297 4.650337 7.999190 17.317197 -0.482810 18.421105 53.828902 -22.042399 8.177712 -1.381237 -21.821971 -3.673706 4.369354 -7.268347 0.000000 0.000000 0.000000 0.000000 0.000000 0.000000 0.000000 0.000000 0.000000 0.000000 0.000000 0.000000 0.000000 0.000000 0.000000 0.000000 0.000000 0.000000 0.000000 0.000000 0.000000 0.000000 0.000000 0.000000 0.000000 0.000000 0.000000 0.000000 0.000000 0.000000 0.000000 0.000000 0.000000 0.000000 0.000000 0.000000 0.000000 0.000000 0.000000 0.000000 0.000000 0.000000 5.863033 -8.198800 5.498118 31.068337 -59.070952 26.884147 5.594597 1.736515 27.897322 -9.014770 -3.300811 3.826612 0.000000 0.000000 0.000000 0.000000 0.000000 0.000000 0.000000 0.000000 0.000000 0.000000 0.000000 0.000000 0.000000 0.000000 0.000000 0.000000 0.000000 0.000000 0.000000 0.000000 0.000000 0.000000 0.000000 0.000000 0.000000 0.000000 0.000000 0.000000 0.000000 0.000000 0.000000 0.000000 0.000000 0.000000 0.000000 0.000000 0.000000 0.000000 0.000000 0.000000 0.000000 0.000000
-0.003654 -0.052137 1.309703 -8.205103 1.158743 2.610520 8.557965 -0.066821 2.559309 1.059885 -0.459050 -1.382496 -2.746497 2.008580 10.452872 2.110365 -3.299384 0.673367 4.938447 -1.058444 -2.287116 5.771361 0.356368 -1.587143 0.914642 -4.505136 -6.970207 0.643941 0.833158 0.009186 3.261682 0.374115 2.282339 11.654050 -3.869464 -2.511417 -5.970303 1.539920 0.720042 7.537257 2.806143 1.288242 5.688077 -3.802443 4.777871 8.072951 17.241486 -0.549177 18.400053 53.929294 -22.018571 8.165255 -1.317342 -21.813640 -3.811821 4.408150 -7.303831 0.000000 0.000000 0.000000 0.000000 0.000000 0.000000 0.000000 0.000000 0.000000 0.000000 0.000000 0.000000 0.000000 0.000000 0.000000 0.000000 0.000000 0.000000 0.000000 0.000000 0.000000 0.000000 0.000000 0.000000 0.000000 0.000000 0.000000 0.000000 0.000000 0.000000 0.000000 0.000000 0.000000 0.000000 0.000000 0.000000 0.000000 0.000000 0.000000 0.000000 0.000000 0.000000 5.948942 -8.085530 5.533953 31.079524 -59.123327 26.907864 5.627617 1.758021 27.962771 -9.011034 -3.323277 3.793399 0.000000 0.000000 0.000000 0.000000 0.000000 0.000000 0.000000 0.000000 0.000000 0.000000 0.000000 0.000000 0.000000 0.000000 0.000000 0.000000 0.000000 0.000000 0.000000 0.000000 0.000000 0.000000 0.000000 0.000000 0.000000 0.000000 0.000000 0.000000 0.000000 0.000000 0.000000 0.000000 0.000000 0.000000 0.000000 0.000000 0.000000 0.000000 0.000000 0.000000 0.000000 0.000000
-0.003292 -0.051863 1.309760 -8.209886 1.149877 2.640146 8.607142 -0.101567 2.610960 1.004835 -0.435011 -1.290463 -2.678377 2.071843 10.349407 2.085187 -3.296504 0.675739 4.978532 -1.086577 -2.345090 5.743246 0.384516 -1.621743 0.968853 -4.468829 -6.930776 0.624556 0.853119 0.038737 3.304492 0.355138 2.271943 11.584790 -3.851452 -2.520781 -5.879829 1.494023 0.671604 7.524892 2.852621 1.315641 5.696555 -3.791622 4.908512 8.072082 17.209948 -0.569715 18.354767 53.948466 -21.974378 8.153922 -1.246313 -21.783127 -4.046094 4.525609 -7.252168 0.000000 0.000000 0.000000 0.000000 0.000000 0.000000 0.000000 0.000000 0.000000 0.000000 0.000000 0.000000 0.000000 0.000000 0.000000 0.000000 0.000000 0.000000 0.000000 0.000000 0.000000 0.000000 0.000000 0.000000 0.000000 0.000000 0.000000 0.000000 0.000000 0.000000 0.000000 0.000000 0.000000 0.000000 0.000000 0.000000 0.000000 0.000000 0.000000 0.000000 0.000000 0.000000 5.945445 -8.079306 5.572066 31.112877 -59.101002 26.932725 5.611553 1.739967 27.994032 -9.085847 -3.370472 3.716411 0.000000 0.000000 0.000000 0.000000 0.000000 0.000000 0.000000 0.000000 0.000000 0.000000 0.000000 0.000000 0.000000 0.000000 0.000000 0.000000 0.000000 0.000000 0.000000 0.000000 0.000000 0.000000 0.000000 0.000000 0.000000 0.000000 0.000000 0.000000 0.000000 0.000000 0.000000 0.000000 0.000000 0.000000 0.000000 0.000000 0.000000 0.000000 0.000000 0.000000 0.000000 0.000000
